<?xml version="1.0" encoding="utf-8"?>
<!-- Generator: Adobe Illustrator 16.0.0, SVG Export Plug-In . SVG Version: 6.00 Build 0)  -->
<!DOCTYPE svg PUBLIC "-//W3C//DTD SVG 1.1//EN" "http://www.w3.org/Graphics/SVG/1.1/DTD/svg11.dtd">
<svg version="1.1" id="Layer_1" xmlns="http://www.w3.org/2000/svg" xmlns:xlink="http://www.w3.org/1999/xlink" x="0px" y="0px"
	 width="300px" height="500px" viewBox="0 0 300 500" enable-background="new 0 0 300 500" xml:space="preserve">
<g>
	<path fill="#23237A" d="M298.854,84.99c-3.91,1.62-5.188,19.433-9.763,24.249c-10.315,10.867-28.224,14.209-42.062,17.218
		c-40.122,8.723-82.616,10.261-123.521,8.468c-32.577-1.429-82.792-1.058-108.78-24.094C-3.056,95.066-1.288,56.159,6.443,35.342
		C16.817,7.411,71.315,5.485,95.1,3.346c25.177-2.265,49.616-3.144,76.348-3.144c2.142,2.382,25.92,2.084,31.534,2.424
		c17.435,4.007,35.526,3.377,53.047,7.942C297.895,21.478,298.854,46.026,298.854,84.99
		C296.708,85.879,298.854,72.037,298.854,84.99z M13.837,96.595c-1.932-6.427-0.633,0.191-0.436,0.37
		c0.069,8.266,10.759,12.863,17.219,14.179C25.253,107.238,18.532,99.798,13.837,96.595C13.588,95.767,15.033,97.412,13.837,96.595z
		 M204.098,68.416c0.008-0.043,39.055-8.682,35.201-11.341C228.77,49.818,279.7,44.008,279.936,35.53
		c0.127-4.536-118.492-29.187-130.708-29.264C138.997,6.2,13.849,27.209,14.99,36.444c0.929,7.517-3.249,48.246,3.119,57.075
		c13.417,18.605,43.943,17.063,63.845,17.17c7.861,0.042,147.978,0.739,149.705-8.467c-8.483-0.927-11.171-0.276-8.399-10.44
		c2.62-9.613,1.041-1.754-4.592-7.872c1.803-2.123,9.367,0.081,8.539-4.333c-0.37-1.968-26.087,0.713-27.795,0.715
		c14.624-8.712,82.501-22.591,85.365-29.245C257.752,57.802,232.105,66.296,204.098,68.416
		C204.408,66.8,222.236,67.043,204.098,68.416z M198.148,127.644c-31.836,0-63.669,0-95.503,0
		C134.478,130.536,166.313,130.151,198.148,127.644z M291.341,73.017c0-2.885,1.995-19.937-1.657-19.891
		C290.564,59.728,291.117,66.358,291.341,73.017C291.341,66.379,290.462,66.289,291.341,73.017z M278.168,27.666
		c0.521,1.039,6.055,8.482,8.063,7.475C290.24,33.131,277.643,27.544,278.168,27.666C280.086,31.481,282.693,28.72,278.168,27.666z
		 M288.8,43.669c0.415-2.226,0.974-4.381-1.569-5.432C287.752,40.047,288.275,41.857,288.8,43.669z M276.613,26.44
		C275.393,27.216,277.852,26.971,276.613,26.44C276.484,26.521,276.75,26.499,276.613,26.44z"/>
	<path fill="#23237A" d="M289.382,397.316c15.892,25.193,13.714,70.179-13.784,85.697c-37.057,20.911-82.197,17.676-122.853,17.676
		c-36.622,0-75.148,0.313-111.085-10.589C7,479.587-13.045,424.258,15.938,395.688c7.669,3.697-1.075,47.582,0.916,56.679
		c5.467,24.984,43.68,27.361,63.32,28.479c29.015,1.654,58.511,1.811,87.544,0.681c12.716-0.494,74.128-9.26,78.45-14.085
		c-6.893-4.112-11.723-3.659-5.831-12.01c-0.071,0.104,1.615-5.157,2.368-7.487c0.191-0.6,0.324-1.006,0.347-1.076
		c0.136-0.405,2.189-6.417,2.241-6.198c-5.825,1.616-11.757,2.396-17.797,2.341c6.081-3.057,20.488-5.081,33.326-8.67
		c2.777-0.775,5.484-1.626,8.016-2.575c8.268-3.103,14.68-7.271,15.738-13.425c-3.563,1.058-30.983,12.471-31.424,5.564
		C268.829,421.536,278.389,407.781,289.382,397.316"/>
	<path fill="#CC853B" d="M134.042,500.689c-0.091-0.308-0.198-0.605-0.324-0.898c2.493-0.085,5.114-1.248,7.337,0.898
		C138.718,500.689,136.38,500.689,134.042,500.689z"/>
	<path fill="#D4D4D1" d="M18.164,398.241c-0.026-1.484-1.124-2.022-2.227-2.554c4.079-4.068,4.515-9.621,5.882-14.778
		c6.375-24.032,16.742-45.923,35.086-63.063c9.339-8.729,20.08-15.755,30.647-22.982c13.2-9.027,25.399-19.299,32.524-34.344
		c6.24-13.177,3.891-28.242-5.57-39.358c-8.066-9.481-17.837-16.616-28.213-23.15c-29.561-18.61-51.919-43.127-62.264-77.445
		c-0.44-1.462-1.25-2.81-1.888-4.21c4.602,2.054,9.203,4.108,13.805,6.162c-2.26,2.374,0.043,4.387,0.685,6.369
		c3.919,12.09,11.546,22.055,19.348,31.655c9.965,12.263,22.256,22.008,36.193,29.511c2.746,2.606,5.724,4.813,9.539,5.568
		c6.368,4.75,13.186,8.958,18.187,15.353c0.341,2.424,1.713,4.249,3.176,6.139c13.121,16.949,11.087,44.948-3.166,60.778
		c-11.633,12.92-26.787,21.012-39.939,31.813c-13.226,10.859-24.945,22.705-33.913,37.295c-8.457,13.757-14.4,28.503-17.123,44.501
		c-0.25,6.176,2.576,10.863,7.057,14.732c6.021,5.196,13.204,8.24,20.628,10.513c23.083,7.063,47.016,8.308,70.864,9.472
		c27.236,1.327,54.493,0.119,81.614-2.383c15.113-1.396,30.303-3.752,44.59-9.379c7.859-3.096,16.119-5.941,21.385-13.431
		c1.851-2.633,3.392-5.254,1.41-8.498c2.252-2.357,1.569-5.235,0.838-7.748c-5.698-19.594-14.229-37.646-28.992-52.129
		c-12.188-11.961-27.014-20.338-40.674-30.307c-10.168-7.421-20.393-14.557-27.844-25.359
		c-13.178-19.102-13.338-43.163,0.332-61.703c2.051-2.781,5.666-4.232,6.455-7.969l-0.041,0.124c1.672-0.029,2.857-0.83,3.633-2.297
		c4.013-4.09,9.545-5.895,13.947-9.4c0.391-0.412,0.778-0.826,1.17-1.24c0.803-0.354,1.605-0.708,2.41-1.063
		c2.133-0.11,4.075-0.676,5.555-2.351c27.572-14.64,46.422-36.97,57.344-66.223c0.518-1.393,2.102-3.168,0.02-4.736
		c4.262-2.011,8.521-4.024,12.782-6.035c-2.248,11.597-6.864,22.254-12.474,32.56c-13.846,25.436-35.183,42.767-59.768,56.734
		c-11.076,6.295-21.281,13.651-27.133,25.696c-8.484,17.459-5.08,35.873,7.775,50.473c8.979,10.199,20.766,15.508,31.955,21.889
		c32.602,18.59,52.914,46.326,61.979,82.686c1.105,4.434,0.313,9.375,3.63,13.191c-4.563,4.345-6.678,10.769-12.301,14.271
		c-5.849,3.646-11.446,7.701-17.968,10.123c-2.035-0.139-3.83,0.355-5.187,2.006l-0.411-0.008c0,0-0.363,0.194-0.363,0.196
		c-3.465-0.371-6.363,1.611-9.564,2.343c-24.947,5.699-50.327,7.552-75.789,8.264c-18.667,0.525-37.336,0.371-56.017-0.726
		c-21.208-1.245-42.278-3.342-62.583-9.745C35.652,419.767,21.744,415.074,18.164,398.241z"/>
	<path fill="#3939C6" d="M199.411,80.292c3.896-0.006,7.792,0.021,11.687-0.026c4.026-0.048,8.088,0.57,11.826-2
		c1.15-0.791,3.818-1.152,4.282,1.311c0.418,2.226-1.476,2.814-3.388,3.059c-1.621,0.208-3.488-0.684-5.151,1.274
		c1.556,1.688,3.715,0.64,5.332,1.303c1.849,0.757,3.383,2.649,1.401,3.842c-2.645,1.592-2.182,3.706-2.653,5.915
		c-1.515,7.065-0.358,8.258,7.246,7.09c0.515-0.08,1.063,0.097,1.665,0.162c-0.402,2.144-2.088,2.296-3.523,2.655
		c-10.74,2.684-21.631,4.193-32.695,4.863c-42.02,2.544-84.066,0.859-126.094,0.921c-13.668,0.021-27.423-1.902-40.153-8.238
		c-9.373-4.665-15.046-11.668-15.41-22.23c-0.249-7.205-0.433-14.409,0.658-21.684c1.083-7.22,1.48-14.536,0.55-22.065
		c-0.468-3.787,4.34-7.748,8.511-10.01c11.25-6.101,23.634-8.876,35.844-12.021c16.947-4.364,34.308-5.869,51.72-7.298
		c21.207-1.741,42.408-0.264,63.585-1.083c7.133-0.276,13.379,2.951,19.975,4.302c9.51,1.95,19.083,2.358,28.564,3.83
		c18.473,2.867,36.533,6.798,52.514,17.225c5.701,3.719,5.662,4.587-0.214,8.208c-7.611,4.688-16.149,6.66-24.841,7.634
		c-3.629,0.406-6.662,2.051-9.709,3.44c-1.67,0.761-6.972,2.729-1.641,6.404c1.401,0.967,0.471,2.265-0.613,2.736
		c-3.315,1.437-6.843,3.993-10.069,3.696c-7.525-0.689-14.207,3.678-21.611,2.692c-1.56-0.208-2.596,0.602-2.905,2.219
		c-5.442,1.537-11.026,2.295-16.643,2.332c-21.029,0.136-42.087,0.737-63.079-0.155c-9.625-0.41-19.358-0.267-28.997-1.791
		c-10.1-1.596-20.205-3.196-30.309-4.708c-10.159-1.522-19.89-3.926-29.065-8.429c-2.433-1.195-4.407-1.787-6.83-0.486
		c2.892,6.821,8.93,8.903,14.604,10.833c11.748,3.998,23.637,7.413,35.881,9.899c16.298,3.309,32.625,5.271,49.18,5.438
		C152.371,81.592,175.902,81.792,199.411,80.292z M233.77,23.77c0.023-0.676,0.043-1.353,0.065-2.028
		c-3.239-0.177-6.601,0.147-9.694-0.619c-12.252-3.033-24.838-2.995-37.266-4.188c-9.938-0.954-20.037-0.581-30.051-0.31
		c-25.715,0.691-51.48-1.605-77.174,2.154c-7.201,1.055-14.317,2.924-21.744,3.178c-4.756,0.163-9.5,2.76-14.088,4.661
		c-1.62,0.671-3.411,2.063-3.225,4.458c0.173,2.231,2.125,1.774,3.443,2.397c12.395,5.867,26.081,3.831,39.049,6.397
		c11.614,2.3,23.727,0.982,35.658,2.008c14.565,1.251,29.17,4.015,43.97,3.124c9.337-0.563,11.268-3.354,7.225-12.095
		c-2.162-4.679-1.131-7.982,3.574-9.619c10.24-3.561,20.67-2.261,31.021-0.492C214.298,24.466,224.025,23.437,233.77,23.77z"/>
	<path fill="#6363F7" d="M199.411,80.292c-23.509,1.5-47.04,1.299-70.57,1.06c-16.556-0.167-32.882-2.13-49.18-5.438
		c-12.244-2.486-24.133-5.902-35.881-9.899c-5.674-1.931-11.712-4.012-14.604-10.833c2.423-1.301,4.397-0.709,6.83,0.486
		c9.175,4.503,18.906,6.907,29.065,8.429c10.104,1.512,20.209,3.112,30.309,4.708c9.639,1.523,19.372,1.381,28.997,1.791
		c20.992,0.892,42.05,0.291,63.079,0.155c5.614-0.037,11.198-0.795,16.642-2.332c18.139-1.375,35.896-4.395,53.432-9.653
		c8.752-2.626,17.631-5.313,27.248-7.717c-3.291,7.646-10.397,7.807-15.854,10.455c-21.505,10.435-44.339,15.833-68.024,17.938
		C200.381,79.486,199.902,79.998,199.411,80.292z"/>
	<path fill="#3939C6" d="M198.148,127.644c-31.836,2.507-63.671,2.892-95.503,0C134.479,127.644,166.313,127.644,198.148,127.644z"
		/>
	<path fill="#3939C6" d="M15.272,99.971c5.116,3.724,10.232,7.448,15.348,11.172c-6.828-1.391-12.732-4.113-16.081-10.607
		C14.774,100.333,15.018,100.145,15.272,99.971z"/>
	<path fill="#3939C6" d="M278.168,27.666c4.525,1.054,6.275,3.395,8.128,5.564c0.449,0.526,0.935,1.411-0.063,1.911
		c-0.431,0.215-1.494,0.14-1.559-0.049C283.689,32.193,280.086,31.481,278.168,27.666z"/>
	<path fill="#CC853B" d="M288.8,43.669c-0.522-1.812-1.048-3.622-1.569-5.432C289.771,39.288,289.215,41.443,288.8,43.669z"/>
	<path fill="#CC853B" d="M13.839,96.593c1.194,0.819,1.101,2.191,1.43,3.38c-0.251,0.172-0.496,0.36-0.73,0.563
		c-1.059-0.971-1.128-2.261-1.139-3.571L13.839,96.593z"/>
	<path fill="#3939C6" d="M18.164,398.241c3.58,16.833,17.488,21.524,31.036,25.8c20.305,6.403,41.374,8.5,62.583,9.745
		c18.681,1.097,37.349,1.251,56.017,0.726c25.462-0.712,50.843-2.563,75.789-8.264c3.201-0.73,6.101-2.714,9.563-2.343
		c0.098,1.53,0.826,2.518,2.386,2.779c-1.392,0.623-2.729,1.468-4.187,1.844c-21.274,5.48-43.104,8.195-64.846,9.289
		c-32.177,1.613-64.477,1.016-96.643-1.998c-0.578-0.056-1.167-0.119-1.721-0.28c-10.843-3.182-22.173-3.738-33.179-6.277
		c-7.381-1.702-13.801-5.18-20.771-7.498c-4.513-1.503-8.362-5.557-14.904-3.961c7.932,8.135,17.246,12.36,26.647,15.424
		c12.483,4.066,24.867,8.533,38.141,10.336c10.806,1.467,21.464,4.074,32.458,4.086c24.91,0.027,49.819,0.022,74.729-0.015
		c2.898-0.004,5.768-0.175,8.684-0.667c9.146-1.542,18.359-2.671,27.549-3.958c6.148,1.326,11.854-1.996,17.797-2.341
		c0.598,2.587-1.18,2.845-2.234,3.271c-3.375,1.365-4.701,3.251-2.436,6.659c1.082,1.624,0.922,3.123-0.286,4.832
		c-4.937,6.995-4.856,7.073,2.933,10.301c0.864,0.358,1.631,0.952,2.898,1.709c-2.738,3.055-6.35,3.434-9.511,4.35
		c-18.298,5.292-36.988,7.791-56.013,9.06c-25.855,1.723-51.698,1.079-77.516,0.684c-19.094-0.293-38.382-0.689-57.095-5.652
		c-8.127-2.156-15.65-5.546-22.139-11.217c-5.994-5.24-7.59-12.081-7.891-19.449c-0.495-12.127,0.369-24.203,2.046-36.217
		C18.554,405.4,15.533,401.792,18.164,398.241z"/>
	<path fill="#6363F7" d="M227.496,443.009c-9.188,1.287-18.403,2.416-27.549,3.958c-2.915,0.492-5.784,0.663-8.684,0.667
		c-24.91,0.037-49.82,0.042-74.729,0.015c-10.994-0.012-21.653-2.619-32.458-4.086c-13.274-1.803-25.658-6.27-38.141-10.336
		c-9.401-3.063-18.715-7.289-26.647-15.424c6.542-1.596,10.391,2.458,14.904,3.961c6.97,2.318,13.39,5.796,20.771,7.498
		c11.006,2.539,22.336,3.097,33.179,6.277c0.554,0.161,1.143,0.226,1.721,0.28c32.167,3.014,64.466,3.611,96.643,1.998
		c21.74-1.094,43.57-3.809,64.846-9.289c1.455-0.376,2.795-1.221,4.187-1.844c9.707-1.772,18.929-5.348,29.039-8.347
		c-0.669,3.887-3.234,5.154-5.671,6.465c-1.024,0.554-4.579,2.021-9.424,3.891c-0.873,0.339-1.785,0.687-2.734,1.046
		c-11.657,4.425-28.535,10.364-37.21,12.27C228.82,442.165,228.174,442.668,227.496,443.009z"/>
	<path fill="#CC853B" d="M253.928,423.717c1.355-1.649,3.15-2.145,5.188-2.006C258.055,424.138,256.201,424.475,253.928,423.717z"/>
	<path fill="#FBD007" d="M186.598,207.309c-10.343,5.246-19.011,12.634-26.717,21.243c-0.516,0.577-0.805,1.405-1.396,1.86
		c-8.531,6.551-8.863,14.775-4.967,23.949c1.391,3.27,1.914,7.679-1.682,8.558c-3.288,0.804-3.83-4.039-4.988-6.778
		c-0.73-1.722-0.169-3.533,0.497-5.141c3.036-7.316,1.518-13.505-3.406-19.654c-6.749-8.423-13.711-16.344-24.04-20.374
		c-5.002-6.394-11.82-10.603-18.19-15.353c-2.525-3.882-5.875-6.903-9.687-9.439c-1.023-2.594-1.857-5.18,0.45-7.574
		c0.771,0.009,1.716-0.272,2.291,0.076c10.12,6.095,21.304,7.427,32.776,7.7c18.227,0.439,36.484,0.888,54.658-0.381
		c10.219-0.713,21.195-0.702,29.121-9.375c3.113,1.677,1.966,4.645,2.152,7.208c-2.568,2.804-5.011,5.684-5.755,9.599
		c-0.805,0.354-1.606,0.708-2.411,1.063c-0.388,0.414-0.777,0.828-1.169,1.24c-4.403,3.505-9.936,5.31-13.95,9.4
		c-1.77-0.134-2.947,0.685-3.631,2.297L186.598,207.309z"/>
	<path fill="#FDFCFA" d="M186.557,207.433c0.682-1.612,1.86-2.431,3.629-2.297C189.414,206.603,188.229,207.403,186.557,207.433z"/>
	<path fill="#F9FD9A" d="M204.137,195.735c0.391-0.412,0.781-0.826,1.17-1.24C204.915,194.909,204.527,195.323,204.137,195.735z"/>
	<path fill="#6363F7" d="M233.77,23.77c-9.744-0.333-19.472,0.696-29.236-0.973c-10.352-1.77-20.78-3.069-31.021,0.492
		c-4.705,1.636-5.734,4.939-3.572,9.619c4.043,8.741,2.111,11.532-7.226,12.095c-14.8,0.891-29.405-1.873-43.97-3.124
		c-11.931-1.026-24.043,0.292-35.658-2.008c-12.968-2.567-26.654-0.531-39.049-6.397c-1.318-0.623-3.27-0.166-3.443-2.397
		c-0.186-2.395,1.605-3.787,3.225-4.458c4.587-1.901,9.332-4.498,14.088-4.661c7.427-0.254,14.542-2.123,21.744-3.178
		c25.694-3.759,51.459-1.462,77.174-2.154c10.014-0.271,20.112-0.644,30.051,0.31c12.427,1.193,25.013,1.155,37.265,4.188
		c3.096,0.766,6.457,0.442,9.695,0.619C233.813,22.417,233.793,23.094,233.77,23.77z"/>
	<path fill="#F9FD9A" d="M211.318,176.626c-7.926,8.674-18.902,8.662-29.121,9.375c-18.174,1.27-36.432,0.821-54.658,0.381
		c-11.472-0.273-22.656-1.605-32.776-7.7c-0.574-0.348-1.52-0.066-2.291-0.076c1.105-5.783,7.052-4.989,10.147-5.672
		c9.082-2.001,17.957-5.537,27.449-5.521c18.241,0.03,36.499-0.417,54.711,0.31c7.678,0.308,15.296,2.935,22.849,4.876
		C209.18,172.999,211.195,174.262,211.318,176.626z"/>
	<path fill="#FBD007" d="M49.561,408.888c-13.387-3.946-16.913-7.089-18.347-17.798c6.505-15.158,19.297-24.256,32.314-32.65
		c21.452-13.834,42.213-28.344,58.78-48.15c3.742-4.475,8.53-7.715,13.35-10.768c11.28-7.149,21.568-3.883,31.242,3.69
		c9.009,7.06,16.228,15.908,24.017,24.194c11.077,11.791,25.42,19.039,38.71,27.732c9.148,5.983,18.475,11.682,27.109,18.449
		c6.039,4.732,10.357,10.792,14.306,17.223c-0.339,0.465-0.877,0.895-0.976,1.405c-0.668,3.476,0.556,7.382-3.063,10.116
		c-4.69,3.544-9.476,6.614-15.603,6.599c1.968-1.906,1.998-3.418-0.654-4.815c-3.501-1.848-7.283-2.688-11.087-3.289
		c-16.556-2.622-33.234-2.732-49.962-2.799c-18.764-0.074-37.674,2.898-56.264-2.105c-12.137-3.266-16.829-10.079-17.934-21.751
		c-1.195-12.621,4.587-23.78,8.093-35.384c1.732-5.73,4.12-11.264,5.869-16.99c0.517-1.688,1.151-4.287-0.673-5.467
		c-1.961-1.266-3.545,0.813-5.021,1.974c-4.117,3.245-7.778,6.968-11.174,10.974c-8.128,9.582-15.88,19.385-26.316,26.859
		c-9.841,7.053-20.897,12.457-29.647,20.932C44.456,388.855,39.973,397.176,49.561,408.888z"/>
	<path fill="#F9FD9A" d="M49.561,408.888c-9.587-11.712-5.104-20.03,7.068-31.819c8.75-8.475,19.806-13.879,29.647-20.932
		c10.437-7.476,18.188-17.277,26.316-26.859c3.396-4.006,7.057-7.729,11.174-10.973c1.476-1.162,3.06-3.238,5.021-1.975
		c1.824,1.18,1.19,3.779,0.673,5.467c-1.749,5.727-4.137,11.26-5.869,16.99c-3.505,11.604-9.288,22.763-8.093,35.384
		c1.105,11.672,5.797,18.486,17.934,21.751c18.589,5.005,37.501,2.031,56.263,2.105c16.729,0.065,33.406,0.177,49.963,2.799
		c3.804,0.603,7.586,1.441,11.087,3.289c2.651,1.397,2.622,2.909,0.653,4.815c-11.051,6.046-23.2,7.9-35.442,9.365
		c-4.771,0.573-9.563,0.987-14.34,1.47c-25.179-1.112-50.211,3.022-75.398,2.18c-3.986-0.135-7.965-1.729-11.994-0.375
		c-0.777-0.027-1.555-0.054-2.331-0.076c-0.347-0.159-0.695-0.317-1.043-0.479c-15.428-1.701-31-2.181-46.164-6.077
		C59.337,413.563,54.512,411.128,49.561,408.888z"/>
	<path fill="#3939C6" d="M29.249,391.658c0.76-0.137,1.52-0.271,2.279-0.407c1.435,10.709,4.96,13.851,18.347,17.798
		c4.952,2.24,9.776,4.676,15.126,6.051c15.164,3.897,30.736,4.376,46.164,6.077c0.348,0.158,0.694,0.317,1.042,0.478
		c0.778,0.024,1.555,0.051,2.333,0.078c1.823,1.245,87.26-0.986,87.39-1.803c4.781-0.482,9.57-0.897,14.344-1.472
		c12.24-1.465,24.393-3.319,35.443-9.365c6.125,0.017,10.908-3.055,15.6-6.599c3.621-2.734,2.396-6.641,3.063-10.116
		c0.099-0.512,0.638-0.94,0.974-1.407c2.064-0.244,3.633,1.122,5.441,1.713c1.98,3.246,0.443,5.867-1.409,8.499
		c-5.267,7.489-13.524,10.334-21.384,13.432c-14.287,5.627-29.479,7.981-44.591,9.379c-27.121,2.503-54.377,3.709-81.612,2.383
		c-23.849-1.164-47.781-2.407-70.864-9.472c-7.425-2.272-14.607-5.315-20.628-10.514C31.825,402.521,28.999,397.834,29.249,391.658z
		"/>
</g>
</svg>
