<?xml version="1.0" encoding="utf-8"?>
<!-- Generator: Adobe Illustrator 16.0.0, SVG Export Plug-In . SVG Version: 6.00 Build 0)  -->
<!DOCTYPE svg PUBLIC "-//W3C//DTD SVG 1.1//EN" "http://www.w3.org/Graphics/SVG/1.1/DTD/svg11.dtd">
<svg version="1.1" id="Layer_1" xmlns="http://www.w3.org/2000/svg" xmlns:xlink="http://www.w3.org/1999/xlink" x="0px" y="0px"
	 width="300px" viewBox="0 0 300 500" xml:space="preserve">
<g>
	<path fill-rule="evenodd" clip-rule="evenodd" fill="#A95D15" d="M298.854,84.99c-3.911,1.62-5.189,19.433-9.763,24.249
		c-10.316,10.867-28.224,14.209-42.061,17.218c-40.123,8.723-82.617,10.261-123.521,8.468c-32.577-1.429-82.792-1.058-108.78-24.094
		C-3.056,95.066-1.288,56.159,6.443,35.342C16.817,7.411,71.315,5.485,95.1,3.346c25.177-2.265,49.616-3.144,76.348-3.144
		c2.142,2.382,25.92,2.084,31.534,2.424c17.435,4.007,35.527,3.377,53.047,7.942C297.895,21.478,298.854,46.026,298.854,84.99
		C296.708,85.879,298.854,72.037,298.854,84.99z M13.837,96.595c-1.932-6.427-0.633,0.191-0.436,0.37
		c0.069,8.266,10.759,12.863,17.219,14.179C25.253,107.238,18.532,99.798,13.837,96.595C13.588,95.767,15.033,97.412,13.837,96.595z
		 M204.098,68.416c0.007-0.043,39.055-8.682,35.201-11.341C228.77,49.818,279.7,44.008,279.935,35.53
		c0.128-4.536-118.491-29.186-130.708-29.264C138.997,6.2,13.849,27.209,14.99,36.444c0.929,7.517-3.249,48.246,3.119,57.075
		c13.417,18.605,43.943,17.063,63.845,17.17c7.861,0.042,147.978,0.739,149.705-8.467c-8.483-0.927-11.171-0.276-8.399-10.44
		c2.62-9.613,1.041-1.754-4.592-7.872c1.802-2.123,9.367,0.081,8.539-4.333c-0.37-1.968-26.087,0.713-27.795,0.715
		c14.624-8.712,82.501-22.591,85.366-29.245C257.752,57.802,232.105,66.296,204.098,68.416
		C204.408,66.8,222.236,67.043,204.098,68.416z M198.148,127.644c-31.835,0-63.669,0-95.503,0
		C134.478,130.536,166.313,130.151,198.148,127.644z M291.341,73.017c0-2.885,1.995-19.937-1.657-19.891
		C290.565,59.728,291.117,66.358,291.341,73.017C291.341,66.379,290.462,66.289,291.341,73.017z M278.168,27.666
		c0.521,1.039,6.055,8.482,8.063,7.475C290.24,33.131,277.643,27.544,278.168,27.666C280.086,31.481,282.693,28.72,278.168,27.666z
		 M288.8,43.669c0.415-2.226,0.973-4.381-1.57-5.432C287.752,40.047,288.276,41.857,288.8,43.669z M276.613,26.44
		C275.393,27.216,277.851,26.971,276.613,26.44C276.485,26.521,276.75,26.499,276.613,26.44z"/>
	<path fill-rule="evenodd" clip-rule="evenodd" fill="#A95D15" d="M289.382,397.316c15.892,25.194,13.714,70.179-13.784,85.698
		c-37.057,20.911-82.197,17.675-122.853,17.675c-36.622,0-75.148,0.313-111.085-10.588C7,479.587-13.045,424.258,15.938,395.688
		c7.669,3.697-1.075,47.582,0.916,56.678c5.467,24.985,43.68,27.362,63.32,28.479c29.015,1.654,58.511,1.81,87.544,0.68
		c12.716-0.494,74.127-9.259,78.45-14.085c-6.893-4.112-11.723-3.659-5.831-12.009c-0.072,0.104,1.615-5.158,2.368-7.488
		c0.192-0.599,0.324-1.005,0.347-1.076c0.135-0.405,2.189-6.417,2.241-6.198c-5.825,1.616-11.757,2.396-17.797,2.341
		c6.081-3.057,20.489-5.081,33.326-8.67c2.778-0.776,5.484-1.626,8.016-2.575c8.267-3.103,14.679-7.271,15.738-13.425
		c-3.563,1.057-30.983,12.471-31.424,5.564C268.829,421.536,278.388,407.781,289.382,397.316"/>
	<path fill-rule="evenodd" clip-rule="evenodd" fill="#CC853B" d="M134.042,500.689c-0.091-0.307-0.198-0.605-0.324-0.898
		c2.493-0.085,5.114-1.248,7.337,0.898C138.718,500.689,136.38,500.689,134.042,500.689z"/>
	<path fill-rule="evenodd" clip-rule="evenodd" fill="#D4D4D1" d="M18.164,398.241c-0.026-1.484-1.124-2.022-2.227-2.554
		c4.079-4.068,4.515-9.621,5.882-14.778c6.375-24.032,16.742-45.922,35.086-63.064c9.339-8.729,20.08-15.754,30.647-22.982
		c13.2-9.027,25.399-19.298,32.524-34.343c6.24-13.177,3.891-28.242-5.57-39.359c-8.066-9.481-17.837-16.616-28.213-23.15
		c-29.561-18.61-51.919-43.127-62.264-77.445c-0.44-1.462-1.25-2.81-1.888-4.21c4.602,2.054,9.203,4.108,13.805,6.162
		c-2.26,2.374,0.043,4.387,0.685,6.369c3.919,12.09,11.546,22.055,19.348,31.655c9.965,12.263,22.256,22.008,36.193,29.511
		c2.746,2.606,5.724,4.813,9.539,5.568c6.368,4.75,13.186,8.958,18.187,15.353c0.341,2.424,1.713,4.249,3.176,6.139
		c13.121,16.949,11.087,44.947-3.166,60.778c-11.633,12.92-26.787,21.011-39.939,31.812c-13.226,10.86-24.945,22.705-33.913,37.295
		c-8.457,13.757-14.4,28.503-17.123,44.501c-0.25,6.176,2.576,10.863,7.057,14.732c6.021,5.197,13.204,8.241,20.628,10.513
		c23.083,7.064,47.016,8.308,70.864,9.472c27.236,1.327,54.493,0.119,81.614-2.383c15.113-1.396,30.302-3.752,44.59-9.379
		c7.859-3.096,16.118-5.941,21.385-13.431c1.85-2.632,3.391-5.254,1.409-8.498c2.253-2.357,1.57-5.235,0.838-7.747
		c-5.698-19.594-14.229-37.647-28.992-52.13c-12.188-11.961-27.014-20.337-40.673-30.306c-10.168-7.421-20.393-14.557-27.845-25.359
		c-13.177-19.102-13.337-43.163,0.333-61.703c2.05-2.781,5.665-4.232,6.454-7.969l-0.041,0.124c1.672-0.029,2.858-0.83,3.633-2.297
		c4.013-4.09,9.545-5.895,13.948-9.4c0.391-0.412,0.778-0.826,1.169-1.24c0.804-0.354,1.606-0.708,2.411-1.063
		c2.132-0.11,4.075-0.676,5.554-2.351c27.573-14.64,46.422-36.97,57.344-66.223c0.518-1.393,2.102-3.168,0.02-4.736
		c4.261-2.011,8.522-4.024,12.782-6.035c-2.248,11.597-6.864,22.254-12.474,32.56c-13.846,25.436-35.182,42.767-59.767,56.734
		c-11.077,6.295-21.282,13.651-27.133,25.696c-8.484,17.459-5.08,35.873,7.775,50.473c8.979,10.199,20.766,15.508,31.956,21.888
		c32.601,18.59,52.914,46.327,61.978,82.686c1.105,4.433,0.313,9.375,3.63,13.191c-4.563,4.345-6.678,10.769-12.301,14.271
		c-5.849,3.646-11.446,7.701-17.967,10.123c-2.036-0.139-3.831,0.355-5.187,2.006l-0.412-0.008c0,0-0.363,0.194-0.363,0.196
		c-3.464-0.371-6.363,1.612-9.564,2.343c-24.947,5.699-50.327,7.552-75.789,8.264c-18.667,0.525-37.336,0.371-56.017-0.726
		c-21.208-1.245-42.278-3.342-62.583-9.745C35.652,419.767,21.744,415.074,18.164,398.241z"/>
	<path fill-rule="evenodd" clip-rule="evenodd" fill="#CC853B" d="M199.411,80.292c3.895-0.006,7.792,0.021,11.687-0.026
		c4.026-0.048,8.088,0.57,11.826-2c1.15-0.791,3.818-1.152,4.282,1.311c0.418,2.226-1.475,2.814-3.388,3.059
		c-1.621,0.208-3.488-0.684-5.151,1.274c1.556,1.688,3.715,0.64,5.332,1.303c1.849,0.757,3.383,2.649,1.401,3.842
		c-2.644,1.592-2.181,3.706-2.653,5.915c-1.514,7.065-0.358,8.258,7.246,7.09c0.515-0.08,1.063,0.097,1.665,0.162
		c-0.402,2.144-2.087,2.296-3.523,2.655c-10.741,2.684-21.631,4.193-32.696,4.863c-42.019,2.544-84.066,0.859-126.094,0.921
		c-13.668,0.021-27.423-1.902-40.153-8.238c-9.373-4.665-15.046-11.668-15.41-22.23c-0.249-7.205-0.433-14.409,0.658-21.684
		c1.083-7.22,1.48-14.536,0.55-22.065c-0.468-3.787,4.34-7.748,8.511-10.01c11.25-6.101,23.634-8.876,35.844-12.021
		c16.947-4.364,34.308-5.869,51.72-7.298c21.207-1.741,42.408-0.264,63.586-1.083c7.132-0.276,13.378,2.951,19.974,4.302
		c9.51,1.95,19.083,2.358,28.564,3.83c18.473,2.867,36.534,6.798,52.514,17.225c5.701,3.719,5.662,4.587-0.214,8.208
		c-7.611,4.688-16.149,6.66-24.841,7.634c-3.628,0.406-6.662,2.051-9.709,3.44c-1.67,0.761-6.971,2.729-1.64,6.404
		c1.401,0.967,0.47,2.265-0.614,2.736c-3.315,1.437-6.842,3.993-10.069,3.696c-7.525-0.689-14.207,3.678-21.611,2.692
		c-1.56-0.208-2.596,0.602-2.906,2.219c-5.442,1.537-11.026,2.295-16.642,2.332c-21.029,0.136-42.087,0.737-63.079-0.155
		c-9.625-0.41-19.358-0.267-28.997-1.791c-10.1-1.596-20.205-3.196-30.309-4.708c-10.159-1.522-19.89-3.926-29.065-8.429
		c-2.433-1.195-4.407-1.787-6.83-0.486c2.892,6.821,8.93,8.903,14.604,10.833c11.748,3.998,23.637,7.413,35.881,9.899
		c16.298,3.309,32.625,5.271,49.18,5.438C152.371,81.592,175.903,81.792,199.411,80.292z M233.77,23.77
		c0.023-0.676,0.043-1.353,0.065-2.028c-3.239-0.177-6.6,0.147-9.695-0.619c-12.252-3.033-24.838-2.995-37.265-4.188
		c-9.938-0.954-20.037-0.581-30.051-0.31c-25.715,0.691-51.48-1.605-77.174,2.154c-7.201,1.055-14.317,2.924-21.744,3.178
		c-4.756,0.163-9.5,2.76-14.088,4.661c-1.62,0.671-3.411,2.063-3.225,4.458c0.173,2.231,2.125,1.774,3.443,2.397
		c12.395,5.867,26.081,3.831,39.049,6.397c11.614,2.3,23.727,0.982,35.658,2.008c14.565,1.251,29.17,4.015,43.97,3.124
		c9.337-0.563,11.268-3.354,7.225-12.095c-2.162-4.679-1.132-7.982,3.573-9.619c10.241-3.561,20.67-2.261,31.021-0.492
		C214.298,24.466,224.025,23.437,233.77,23.77z"/>
	<path fill-rule="evenodd" clip-rule="evenodd" fill="#FBD007" d="M199.411,80.292c-23.508,1.5-47.04,1.299-70.57,1.06
		c-16.556-0.167-32.882-2.13-49.18-5.438c-12.244-2.486-24.133-5.902-35.881-9.899c-5.674-1.931-11.712-4.012-14.604-10.833
		c2.423-1.301,4.397-0.709,6.83,0.486c9.175,4.503,18.906,6.907,29.065,8.429c10.104,1.512,20.209,3.112,30.309,4.708
		c9.639,1.523,19.372,1.381,28.997,1.791c20.992,0.892,42.05,0.291,63.079,0.155c5.615-0.037,11.199-0.795,16.642-2.332
		c18.139-1.375,35.896-4.395,53.431-9.653c8.752-2.626,17.631-5.313,27.249-7.717c-3.292,7.646-10.398,7.807-15.855,10.455
		c-21.505,10.435-44.339,15.833-68.024,17.938C200.381,79.486,199.903,79.998,199.411,80.292z"/>
	<path fill-rule="evenodd" clip-rule="evenodd" fill="#CC853B" d="M198.148,127.644c-31.836,2.507-63.671,2.892-95.503,0
		C134.479,127.644,166.313,127.644,198.148,127.644z"/>
	<path fill-rule="evenodd" clip-rule="evenodd" fill="#CC853B" d="M15.272,99.971c5.116,3.724,10.232,7.448,15.348,11.172
		c-6.828-1.391-12.732-4.113-16.081-10.607C14.774,100.333,15.018,100.145,15.272,99.971z"/>
	<path fill-rule="evenodd" clip-rule="evenodd" fill="#CC853B" d="M278.168,27.666c4.525,1.054,6.276,3.395,8.128,5.564
		c0.449,0.526,0.934,1.411-0.064,1.911c-0.43,0.215-1.493,0.14-1.558-0.049C283.69,32.193,280.086,31.481,278.168,27.666z"/>
	<path fill-rule="evenodd" clip-rule="evenodd" fill="#CC853B" d="M288.8,43.669c-0.523-1.812-1.048-3.622-1.57-5.432
		C289.772,39.288,289.215,41.443,288.8,43.669z"/>
	<path fill-rule="evenodd" clip-rule="evenodd" fill="#CC853B" d="M13.839,96.593c1.194,0.819,1.101,2.191,1.43,3.38
		c-0.251,0.172-0.496,0.36-0.73,0.563c-1.059-0.971-1.128-2.261-1.139-3.571L13.839,96.593z"/>
	<path fill-rule="evenodd" clip-rule="evenodd" fill="#CC853B" d="M18.164,398.241c3.58,16.833,17.488,21.525,31.036,25.8
		c20.305,6.403,41.374,8.5,62.583,9.745c18.681,1.097,37.349,1.251,56.017,0.726c25.462-0.712,50.842-2.564,75.789-8.264
		c3.201-0.73,6.101-2.714,9.564-2.343c0.097,1.531,0.826,2.518,2.385,2.78c-1.391,0.623-2.73,1.467-4.187,1.843
		c-21.274,5.481-43.104,8.196-64.845,9.289c-32.177,1.614-64.477,1.016-96.643-1.998c-0.578-0.055-1.167-0.119-1.721-0.28
		c-10.843-3.182-22.173-3.738-33.179-6.277c-7.381-1.702-13.801-5.18-20.771-7.498c-4.513-1.503-8.362-5.557-14.904-3.961
		c7.932,8.134,17.246,12.36,26.647,15.424c12.483,4.066,24.867,8.533,38.141,10.335c10.806,1.467,21.464,4.075,32.458,4.086
		c24.91,0.028,49.819,0.023,74.729-0.014c2.899-0.004,5.769-0.175,8.684-0.667c9.146-1.542,18.36-2.671,27.549-3.958
		c6.149,1.326,11.853-1.996,17.797-2.341c0.597,2.587-1.18,2.845-2.234,3.271c-3.376,1.366-4.702,3.251-2.436,6.66
		c1.082,1.624,0.922,3.123-0.286,4.832c-4.936,6.995-4.857,7.073,2.932,10.3c0.865,0.359,1.632,0.953,2.899,1.709
		c-2.739,3.055-6.349,3.434-9.511,4.35c-18.298,5.292-36.988,7.791-56.012,9.06c-25.856,1.722-51.698,1.079-77.516,0.683
		c-19.094-0.293-38.382-0.689-57.095-5.652c-8.127-2.156-15.65-5.546-22.139-11.217c-5.994-5.24-7.59-12.081-7.891-19.449
		c-0.495-12.127,0.369-24.203,2.046-36.217C18.554,405.4,15.533,401.792,18.164,398.241z"/>
	<path fill-rule="evenodd" clip-rule="evenodd" fill="#FBD007" d="M227.496,443.009c-9.188,1.287-18.403,2.416-27.549,3.958
		c-2.915,0.492-5.784,0.663-8.684,0.667c-24.91,0.037-49.819,0.042-74.729,0.014c-10.994-0.011-21.653-2.619-32.458-4.086
		c-13.274-1.802-25.658-6.269-38.141-10.335c-9.401-3.063-18.715-7.29-26.647-15.424c6.542-1.596,10.391,2.458,14.904,3.961
		c6.97,2.318,13.39,5.796,20.771,7.498c11.006,2.539,22.336,3.096,33.179,6.277c0.554,0.161,1.143,0.226,1.721,0.28
		c32.167,3.014,64.466,3.612,96.643,1.998c21.74-1.093,43.57-3.808,64.845-9.289c1.456-0.376,2.796-1.22,4.187-1.843
		c9.707-1.773,18.929-5.348,29.039-8.347c-0.669,3.887-3.234,5.154-5.671,6.465c-1.024,0.553-4.579,2.021-9.424,3.89
		c-0.872,0.339-1.785,0.687-2.734,1.046c-11.657,4.425-28.535,10.364-37.21,12.27C228.82,442.165,228.174,442.668,227.496,443.009z"
		/>
	<path fill-rule="evenodd" clip-rule="evenodd" fill="#CC853B" d="M253.928,423.717c1.355-1.65,3.15-2.145,5.187-2.006
		C258.055,424.138,256.201,424.475,253.928,423.717z"/>
	<path fill-rule="evenodd" clip-rule="evenodd" fill="#FBD007" d="M186.597,207.309c-10.342,5.246-19.01,12.634-26.716,21.243
		c-0.516,0.577-0.805,1.405-1.397,1.86c-8.531,6.551-8.863,14.775-4.967,23.949c1.391,3.27,1.914,7.679-1.681,8.558
		c-3.288,0.803-3.83-4.039-4.988-6.778c-0.73-1.722-0.169-3.533,0.497-5.141c3.036-7.316,1.518-13.505-3.406-19.654
		c-6.749-8.423-13.711-16.344-24.04-20.374c-5.002-6.394-11.82-10.603-18.19-15.353c-2.525-3.882-5.875-6.903-9.687-9.439
		c-1.023-2.594-1.857-5.18,0.45-7.574c0.771,0.009,1.716-0.272,2.291,0.076c10.12,6.095,21.304,7.427,32.776,7.7
		c18.227,0.439,36.485,0.888,54.658-0.381c10.219-0.713,21.195-0.702,29.122-9.375c3.113,1.677,1.965,4.645,2.152,7.208
		c-2.568,2.804-5.011,5.684-5.755,9.599c-0.805,0.354-1.607,0.708-2.411,1.063c-0.388,0.414-0.778,0.828-1.169,1.24
		c-4.403,3.505-9.936,5.31-13.951,9.4c-1.769-0.134-2.947,0.685-3.63,2.297L186.597,207.309z"/>
	<path fill-rule="evenodd" clip-rule="evenodd" fill="#FDFCFA" d="M186.556,207.433c0.683-1.612,1.861-2.431,3.63-2.297
		C189.414,206.603,188.228,207.403,186.556,207.433z"/>
	<path fill-rule="evenodd" clip-rule="evenodd" fill="#F9FD9A" d="M204.137,195.735c0.391-0.412,0.781-0.826,1.169-1.24
		C204.915,194.909,204.527,195.323,204.137,195.735z"/>
	<path fill-rule="evenodd" clip-rule="evenodd" fill="#FBD007" d="M233.77,23.77c-9.744-0.333-19.472,0.696-29.237-0.973
		c-10.352-1.77-20.78-3.069-31.021,0.492c-4.705,1.636-5.735,4.939-3.573,9.619c4.043,8.741,2.112,11.532-7.225,12.095
		c-14.8,0.891-29.405-1.873-43.97-3.124c-11.931-1.026-24.043,0.292-35.658-2.008c-12.968-2.567-26.654-0.531-39.049-6.397
		c-1.318-0.623-3.27-0.166-3.443-2.397c-0.186-2.395,1.605-3.787,3.225-4.458c4.587-1.901,9.332-4.498,14.088-4.661
		c7.427-0.254,14.542-2.123,21.744-3.178c25.694-3.759,51.459-1.462,77.174-2.154c10.014-0.271,20.113-0.644,30.051,0.31
		c12.427,1.193,25.013,1.155,37.265,4.188c3.096,0.766,6.456,0.442,9.695,0.619C233.813,22.417,233.793,23.094,233.77,23.77z"/>
	<path fill-rule="evenodd" clip-rule="evenodd" fill="#F9FD9A" d="M211.319,176.626c-7.927,8.674-18.903,8.662-29.122,9.375
		c-18.173,1.27-36.432,0.821-54.658,0.381c-11.472-0.273-22.656-1.605-32.776-7.7c-0.574-0.348-1.52-0.066-2.291-0.076
		c1.105-5.783,7.052-4.989,10.147-5.672c9.082-2.001,17.957-5.537,27.449-5.521c18.241,0.03,36.499-0.417,54.711,0.31
		c7.678,0.308,15.296,2.935,22.849,4.876C209.18,172.999,211.195,174.262,211.319,176.626z"/>
	<path fill-rule="evenodd" clip-rule="evenodd" fill="#FBD007" d="M49.561,408.888c-13.387-3.947-16.913-7.089-18.347-17.798
		c6.505-15.158,19.297-24.256,32.314-32.65c21.452-13.834,42.213-28.345,58.78-48.151c3.742-4.475,8.53-7.715,13.35-10.768
		c11.28-7.149,21.569-3.883,31.243,3.691c9.008,7.059,16.227,15.908,24.016,24.194c11.077,11.791,25.42,19.04,38.71,27.732
		c9.149,5.984,18.474,11.682,27.109,18.45c6.039,4.732,10.358,10.792,14.306,17.223c-0.339,0.465-0.877,0.894-0.976,1.405
		c-0.668,3.476,0.556,7.382-3.063,10.116c-4.691,3.544-9.475,6.614-15.603,6.599c1.968-1.907,1.998-3.418-0.654-4.816
		c-3.501-1.847-7.283-2.687-11.087-3.289c-16.556-2.622-33.234-2.732-49.962-2.799c-18.763-0.074-37.674,2.899-56.264-2.105
		c-12.137-3.265-16.829-10.079-17.934-21.751c-1.195-12.621,4.587-23.78,8.093-35.384c1.732-5.731,4.12-11.264,5.869-16.99
		c0.517-1.688,1.151-4.287-0.673-5.467c-1.961-1.265-3.545,0.812-5.021,1.974c-4.117,3.245-7.778,6.968-11.174,10.974
		c-8.128,9.581-15.88,19.384-26.316,26.859c-9.841,7.052-20.897,12.457-29.647,20.931C44.456,388.856,39.973,397.176,49.561,408.888
		z"/>
	<path fill-rule="evenodd" clip-rule="evenodd" fill="#F9FD9A" d="M49.561,408.888c-9.587-11.712-5.104-20.031,7.068-31.82
		c8.75-8.474,19.806-13.879,29.647-20.931c10.437-7.476,18.188-17.278,26.316-26.859c3.396-4.006,7.057-7.729,11.174-10.974
		c1.476-1.162,3.06-3.238,5.021-1.974c1.824,1.18,1.19,3.779,0.673,5.467c-1.749,5.727-4.137,11.259-5.869,16.99
		c-3.505,11.604-9.288,22.763-8.093,35.384c1.105,11.672,5.797,18.486,17.934,21.751c18.59,5.005,37.501,2.031,56.264,2.105
		c16.728,0.066,33.406,0.177,49.962,2.799c3.804,0.603,7.586,1.442,11.087,3.289c2.652,1.398,2.622,2.909,0.654,4.816
		c-11.052,6.046-23.201,7.9-35.443,9.365c-4.771,0.573-9.563,0.987-14.34,1.47c-25.178-1.113-50.211,3.022-75.398,2.179
		c-3.986-0.134-7.965-1.728-11.994-0.375c-0.777-0.027-1.555-0.053-2.331-0.076c-0.347-0.159-0.695-0.317-1.043-0.478
		c-15.428-1.702-31-2.181-46.164-6.078C59.337,413.563,54.512,411.128,49.561,408.888z"/>
	<path fill-rule="evenodd" clip-rule="evenodd" fill="#CC853B" d="M29.249,391.658c0.76-0.136,1.52-0.271,2.279-0.407
		c1.435,10.709,4.96,13.851,18.347,17.798c4.952,2.24,9.776,4.676,15.126,6.051c15.164,3.897,30.736,4.376,46.164,6.077
		c0.348,0.158,0.694,0.317,1.042,0.477c0.778,0.025,1.555,0.051,2.333,0.078c1.823,1.246,87.26-0.986,87.389-1.802
		c4.782-0.483,9.571-0.898,14.345-1.472c12.239-1.465,24.392-3.319,35.443-9.365c6.125,0.016,10.908-3.055,15.6-6.599
		c3.62-2.734,2.395-6.641,3.063-10.116c0.099-0.512,0.637-0.94,0.973-1.408c2.065-0.243,3.634,1.123,5.442,1.713
		c1.981,3.246,0.443,5.868-1.409,8.5c-5.267,7.489-13.525,10.334-21.384,13.431c-14.287,5.627-29.478,7.982-44.591,9.379
		c-27.121,2.503-54.377,3.709-81.612,2.383c-23.849-1.164-47.781-2.407-70.864-9.472c-7.425-2.272-14.607-5.315-20.628-10.513
		C31.825,402.521,28.999,397.834,29.249,391.658z"/>
	<path fill-rule="evenodd" clip-rule="evenodd" fill="#CC853B" d="M117.378,423.675"/>
</g>
</svg>
